# xmcd
#
# Track frame offsets:
#	150
#	13848
#	26796
#	47113
#	62008
#	74298
#	88871
#	100981
#	115245
#	130594
#	144767
#	157606
#	175832
#
# Disc length: 2499 seconds
#
# Revision: 0
# Processed by: cddbd v1.5.2PL0 Copyright (c) Steve Scherf et al.
# Submitted via: EasyCDDAExtractor 10.0.6.1
#
DISCID=a609c10d
DTITLE=Il Mondo Delle Favole - Le Canzoni di Nonna Pina
DYEAR=2007
DGENRE=Kids
TTITLE0=Un Poco Di Zucchero
TTITLE1=Bibbi Bobbidi Boo
TTITLE2=Il Cerchio Della Vita
TTITLE3=Una Stella Cade
TTITLE4=Supercalifragilistic-Espiralidoso
TTITLE5=La La Lu
TTITLE6=Cam Caminì
TTITLE7=I Tre Porcellini
TTITLE8=Impara A Fischiettar
TTITLE9=In Fondo Al Mar
TTITLE10=I Sogni Son Desideri
TTITLE11=La Bella E La Bestia
TTITLE12=Ehi Ho!
EXTD=
EXTT0=
EXTT1=
EXTT2=
EXTT3=
EXTT4=
EXTT5=
EXTT6=
EXTT7=
EXTT8=
EXTT9=
EXTT10=
EXTT11=
EXTT12=
PLAYORDER=
